<svg width="498" height="471" viewBox="0 0 498 471" fill="none" xmlns="http://www.w3.org/2000/svg">
<path d="M269.008 369.29C268.869 369.166 268.73 369.042 268.656 368.536C268.451 367.854 268.182 367.553 267.913 367.253C267.785 367.144 267.656 367.035 267.616 366.555C267.413 365.882 267.121 365.579 266.829 365.275C266.704 365.159 266.581 365.042 266.622 364.494C266.161 363.135 265.535 362.208 264.908 361.281C264.781 361.16 264.654 361.038 264.639 360.417C263.911 357.739 263.07 355.561 262.137 353.15C261.854 352.625 261.591 352.43 261.25 352.342C261.245 352.349 261.271 352.329 261.217 351.958C259.581 350.907 257.768 349.422 256.488 349.79C255.368 350.113 250.959 351.552 255.237 354.297C255.956 357.648 256.675 361 257.341 365.143C258.083 368.579 258.877 371.225 259.955 374.818C254 373.893 248.65 373.255 243.385 372.197C236.303 370.773 229.285 369.026 221.905 367.26C213.241 363.839 204.839 360.751 196.609 357.255C191.043 354.89 185.721 351.952 180.125 348.981C173.656 344.296 167.35 339.901 161.044 335.506C161.044 335.506 161.167 335.436 161.161 335.136C157.539 331.001 153.923 327.166 150.247 322.994C148.417 320.975 146.646 319.294 144.875 317.612C144.875 317.612 145.093 317.53 145.094 317.239C144.335 316.197 143.576 315.446 142.817 314.694C142.817 314.694 142.952 314.322 143.006 314.151C142.311 313.214 141.562 312.448 140.813 311.682C140.813 311.682 141.135 311.322 141.099 311.131C138.63 306.092 135.976 301.339 133.819 296.37C130.934 289.725 125.276 287.342 118.906 285.797C118.906 285.797 119.136 285.75 119.028 285.387C117.918 284.603 116.916 284.182 115.913 283.76C115.913 283.76 115.849 283.568 115.896 283.288C114.016 281.805 112.09 280.603 110.164 279.4C110.164 279.4 110.23 279.369 110.217 279.049C109.206 277.433 108.321 276.028 107.195 274.856C87.8211 254.683 82.4003 230.513 87.7361 203.772C90.3828 190.507 96.1361 178.255 104 167.11C109.451 159.385 114.997 151.719 120.198 143.826C128.13 131.789 124.343 118.733 111.456 114.103C103.93 111.399 95.9208 111.581 88.5724 114.407C80.1107 117.66 72.2051 122.329 63.8771 125.97C55.6895 129.55 47.3974 129.554 38.7456 125.47C46.766 111.154 60.3146 106.186 73.7614 100.381C75.2587 112.782 75.2254 112.653 86.9106 109.642C95.6292 107.395 104.291 106.189 113.362 109.025C120.397 111.224 127.878 112.94 135.189 113.052C142.446 113.162 149.889 111.358 154.954 104.965C154.954 104.965 155.077 105.265 155.362 105.231C157.222 104.357 159.053 103.798 160.33 102.632C169.043 94.6788 174.002 84.5159 174.973 73.0013C175.681 64.6077 173.757 56.2412 168.272 48.8654C165.497 45.1702 162.787 41.8159 160.076 38.4616C160.076 38.4616 160.166 38.407 160.132 38.2453C160.012 37.7946 159.83 37.5939 159.551 37.4812C158.616 36.5776 157.68 35.674 156.438 34.2632C154.055 32.4268 151.978 31.0978 149.9 29.7686C149.9 29.7686 149.847 29.5967 149.889 29.3068C139.528 20.4587 127.752 16.4881 114.179 17.9912C112.6 17.2094 111.078 16.7657 109.357 16.2639C110.599 9.02388 116.711 8.10823 122.311 6.31958C125.39 5.33637 128.267 3.7249 131.609 2.37846C132.729 2.34843 133.476 2.33661 134.4 2.65769C135.422 3.4319 136.235 4.16466 137.12 4.26393C140.887 4.68672 144.673 5.05644 148.458 5.12879C149.374 5.1463 150.313 3.95638 151.642 3.32495C153.105 3.35673 154.17 3.38524 155.269 3.70352C155.954 4.09888 156.606 4.20442 157.587 4.31848C158.355 4.35587 158.794 4.38475 159.296 4.76639C161.901 6.45078 164.47 7.73395 166.978 9.1274C169.619 10.5944 172.275 12.0545 174.783 13.7296C176.702 15.0114 179.517 16.3462 179.964 18.1462C180.875 21.8189 183.61 22.6769 186.097 24.4684C189.122 26.6486 192.208 29.2677 194.086 32.4045C197.522 38.1443 200.054 44.4221 203.084 50.4142C203.357 50.9536 204.512 51.0468 205.525 51.6043C205.954 53.3555 206.113 54.8496 206.001 56.5615C206.221 57.9725 206.714 59.1658 207.222 60.8272C206.651 69.5458 206.582 77.8731 205.367 86.0299C203.111 101.184 195.263 114.293 188.993 127.969C184.137 138.559 179.76 149.365 180.303 161.334C180.506 165.805 180.733 170.565 185.406 173.26C185.406 173.26 185.315 173.29 185.316 173.605C187.962 178.941 192.246 182.069 197.767 181.175C204.018 180.163 210.606 178.803 216.074 175.813C239.709 162.89 264.802 155.7 291.693 155.482C302.432 155.394 313.182 156.736 323.927 157.427C324.862 157.402 325.798 157.376 327.166 157.988C337.864 162.022 348.329 164.92 358.348 168.93C373.279 174.907 386.345 183.955 397.803 195.3C398.72 196.208 400.308 196.437 401.585 196.981C401.585 196.981 401.306 197.262 401.357 197.509C402.813 198.791 404.217 199.827 405.622 200.863C405.622 200.863 405.564 200.876 405.577 201.238C406.161 201.843 406.732 202.087 407.303 202.33C407.303 202.33 407.242 202.356 407.273 202.698C410.31 206.246 412.175 206.188 413.147 202.593C415.336 194.491 419.848 188.058 425.757 182.146C438.697 169.198 462.712 166.943 477.065 178.912C482.186 183.182 487.014 187.897 489.484 195.476C484.075 194.471 479.535 193.198 474.926 192.868C467.352 192.327 460.119 193.756 454.181 199C453.423 199.669 453.174 200.912 452.689 201.89C453.683 202.155 454.714 202.747 455.663 202.636C463.853 201.677 471.487 203.262 478.538 207.489C482.182 209.674 485.709 212.052 489.289 214.343C489.289 214.343 489.235 214.359 489.228 214.716C493.459 224.192 496.695 233.538 495.223 243.83C494.646 247.872 494.456 252.133 491.212 255.564C479.98 239.61 473.759 235.389 465.991 238.733C466.993 240.449 467.827 242.21 468.958 243.753C473.637 250.137 476.111 257.17 475.209 265.126C474.746 269.21 473.891 273.25 472.951 277.527C472.674 278.387 472.658 279.031 472.642 279.675C472.642 279.675 472.506 279.66 472.221 279.687C471.783 280.342 471.63 280.969 471.477 281.596C471.477 281.596 471.512 281.464 471.144 281.488C470.327 282.532 469.878 283.552 469.429 284.571C469.429 284.571 469.374 284.477 469.136 284.544C468.754 284.957 468.611 285.303 468.467 285.648C468.467 285.648 468.542 285.593 468.188 285.547C466.273 286.663 464.744 287.872 463.142 288.975C459.519 291.47 455.859 293.913 452.72 296.035C452.175 288.806 452.349 282.367 450.987 276.272C450.138 272.476 446.965 269.2 444.835 265.69C444.835 265.69 444.776 265.569 444.916 265.28C442.475 262.42 439.894 259.848 437.227 256.919C435.576 255.91 434.011 255.259 432.446 254.608C432.049 256.11 431.234 257.636 431.319 259.111C432.047 271.744 430.23 284.096 425.431 295.661C410.864 330.768 384.317 353.053 349.001 365.749C346.702 366.576 344.466 368.979 343.265 371.219C338.093 380.858 333.522 390.853 323.931 397.19C321.961 398.492 320.108 399.971 317.906 401.661C317.511 414.093 317.411 426.233 317.331 438.728C320.157 446.892 325.452 451.342 333.993 451.409C334.491 451.388 334.989 451.367 336.073 451.66C342.001 453.956 347.962 455.031 350.283 461.399C351.216 463.959 352.219 466.493 353.265 469.237C351.829 469.307 350.527 469.371 348.758 469.412C307.275 469.364 266.26 469.337 225.235 468.923C225.469 467.42 225.519 466.217 225.987 465.207C233.047 449.982 246.166 445.19 262.555 446.381C270.823 446.982 279.129 447.179 287.422 447.271C290.927 447.31 293.77 445.684 294.84 441.957C294.84 441.957 295.249 442.119 295.424 442.069C296.802 439.631 298.949 437.28 299.046 434.848C299.444 424.784 299.299 414.695 299.115 404.619C299.096 403.533 297.523 402.477 296.671 401.406C294.72 400.146 292.768 398.886 290.467 397.131C289.037 396.071 287.957 395.506 286.877 394.941C286.877 394.941 286.846 394.834 286.872 394.48C286.555 394.029 286.212 393.932 285.87 393.836C285.87 393.836 285.866 393.751 285.879 393.44C285.551 393.034 285.209 392.938 284.868 392.842C284.868 392.842 284.861 392.756 284.875 392.443C284.549 392.036 284.208 391.94 283.866 391.845C283.866 391.845 283.861 391.759 283.874 391.442C283.545 391.021 283.201 390.915 282.858 390.809C282.858 390.809 282.77 390.755 282.888 390.396C278.34 383.122 273.674 376.206 269.008 369.29Z" fill="#2C64F5"/>
<path d="M154.599 105.031C149.889 111.357 142.446 113.162 135.189 113.052C127.878 112.94 120.397 111.224 113.362 109.025C104.291 106.189 95.6292 107.395 86.9106 109.642C75.2254 112.653 75.2587 112.782 73.7614 100.381C60.3146 106.186 46.766 111.154 38.7456 125.47C47.3974 129.554 55.6895 129.55 63.8771 125.97C72.2051 122.329 80.1107 117.66 88.5724 114.407C95.9208 111.581 103.93 111.399 111.456 114.103C124.343 118.733 128.13 131.789 120.198 143.826C114.997 151.719 109.451 159.385 104 167.11C96.1361 178.255 90.3828 190.507 87.7361 203.772C82.4003 230.513 87.8211 254.683 107.195 274.856C108.321 276.028 109.206 277.432 110.201 279.082C94.1406 266.199 86.0105 248.831 84.3246 228.416C82.2439 203.221 91.4249 181.451 105.747 161.417C108.845 157.085 112.164 152.906 115.162 148.507C117.118 145.637 119.047 142.647 120.349 139.45C125.736 126.228 119.595 116.075 105.384 114.559C95.9885 113.556 87.1981 115.784 78.9004 120.119C74.6247 122.353 70.4697 124.824 66.1513 126.969C56.4095 131.807 46.6272 131.293 36.1738 126.839C44.0613 109.331 60.5237 104.411 76.1905 97.0742C76.1905 101.994 76.1905 105.956 76.1905 110.815C79.2476 109.894 81.8078 109.097 84.3823 108.35C96.2228 104.915 108.017 104.965 119.763 108.83C131.817 112.797 143.37 112.067 154.599 105.031Z" fill="#2C64F5"/>
<path d="M489.193 214.022C485.709 212.052 482.182 209.674 478.538 207.489C471.487 203.262 463.853 201.677 455.663 202.636C454.714 202.747 453.683 202.155 452.689 201.89C453.174 200.912 453.423 199.669 454.181 199C460.119 193.756 467.352 192.327 474.926 192.868C479.535 193.198 484.075 194.471 489.484 195.476C487.014 187.897 482.186 183.182 477.065 178.912C462.712 166.943 438.697 169.198 425.757 182.146C419.848 188.058 415.336 194.491 413.147 202.593C412.175 206.188 410.31 206.245 407.283 202.665C408.288 202.762 409.315 203.232 410.802 203.912C414.435 190.42 422.126 180.265 434.286 173.779C442.157 169.58 450.646 168.279 459.438 169.451C475.049 171.534 490.981 186.071 493.833 200.63C473.201 193.076 463.674 192.914 455.799 200.595C469.198 200.058 480.445 203.785 489.193 214.022Z" fill="#2C64F5"/>
<path d="M318.201 401.368C320.108 399.971 321.961 398.492 323.931 397.19C333.522 390.853 338.093 380.858 343.265 371.219C344.466 368.979 346.702 366.576 349.001 365.749C384.317 353.053 410.864 330.768 425.431 295.661C430.23 284.096 432.047 271.744 431.319 259.111C431.234 257.636 432.049 256.11 432.446 254.608C434.011 255.259 435.576 255.91 437.213 257.11C437.286 257.659 437.29 258.04 437.29 258.04C436.158 257.436 435.025 256.831 433.337 255.93C433.263 257.352 433.13 258.266 433.182 259.169C434.668 285.062 424.927 307.066 409.12 326.681C393.577 345.97 373.345 358.742 350.292 367.406C347.859 368.32 345.325 370.704 344.197 373.057C338.407 385.141 331.649 396.212 318.552 402.048C318.253 401.797 318.227 401.583 318.201 401.368Z" fill="#2C64F5"/>
<path d="M185.356 172.883C180.733 170.565 180.506 165.805 180.303 161.334C179.76 149.365 184.137 138.559 188.993 127.969C195.263 114.293 203.111 101.184 205.367 86.0299C206.582 77.8731 206.651 69.5458 207.234 60.4624C206.912 58.5341 206.592 57.4389 206.273 56.3437C206.114 54.8496 205.954 53.3555 205.522 51.207C202.263 43.6678 199.351 36.7497 196.251 29.9166C195.193 27.5846 193.664 25.4661 192.351 23.25C196.063 28.6184 200.752 33.56 203.318 39.4299C213.697 63.1813 209.878 86.5255 199.794 109.38C195.641 118.791 191.079 128.025 187.043 137.485C185.233 141.729 184.039 146.276 182.954 150.78C181.155 158.249 181.372 165.606 185.356 172.883Z" fill="#2C64F5"/>
<path d="M323.716 157.168C313.182 156.736 302.432 155.394 291.693 155.482C264.802 155.7 239.709 162.89 216.074 175.813C210.606 178.803 204.018 180.163 197.767 181.175C192.246 182.069 187.963 178.941 185.33 173.558C194.08 182.533 203.698 180.513 213.493 175.298C227.644 167.765 242.174 161.206 257.903 157.66C278.283 153.065 298.816 152.443 319.467 155.437C320.855 155.638 322.161 156.405 323.716 157.168Z" fill="#2C64F5"/>
<path d="M45.6664 105.859C42.6477 108.689 39.3869 111.306 36.6578 114.393C29.8555 122.087 29.2968 131.486 30.3952 142.161C15.6312 136.251 6.8741 125.776 2.65742 111.857C-3.03423 93.0691 -0.016923 76.0223 15.9388 62.4869C16.3066 62.4324 16.412 62.5435 16.3216 62.8664C12.6507 68.1129 7.94194 72.5742 5.70045 78.0462C-1.14818 94.7653 1.47743 110.962 11.5732 125.656C15.5182 131.398 20.6261 136.549 28.2094 138.93C27.5385 124.148 31.6886 112.289 45.3172 105.451C45.4326 105.588 45.6664 105.859 45.6664 105.859Z" fill="#2C64F5"/>
<path d="M473.213 277.31C473.891 273.25 474.746 269.21 475.209 265.126C476.111 257.17 473.637 250.137 468.958 243.753C467.827 242.21 466.993 240.449 465.991 238.733C473.759 235.389 479.98 239.61 491.212 255.564C494.456 252.133 494.646 247.872 495.223 243.83C496.695 233.538 493.459 224.191 489.238 214.688C497.242 223.8 498.756 234.916 496.727 246.612C495.818 251.846 493.677 256.866 491.499 261.973C487.176 250.758 481.466 241.532 468.423 239.095C477.813 251.391 480.495 264.394 473.444 278.508C473.214 278.073 473.214 277.691 473.213 277.31Z" fill="#2C64F5"/>
<path d="M192.33 23.2722C193.664 25.4658 195.193 27.5846 196.251 29.9166C199.351 36.7497 202.263 43.6675 205.253 50.9495C204.512 51.0464 203.357 50.9536 203.084 50.4142C200.054 44.4221 197.522 38.1443 194.086 32.4045C192.208 29.2677 189.122 26.6486 186.097 24.4684C183.61 22.6769 180.875 21.8189 179.964 18.1462C179.517 16.3462 176.702 15.0114 174.783 13.7296C172.275 12.0545 169.619 10.5944 166.978 9.1274C164.47 7.73395 161.901 6.45044 159.67 4.79102C163.668 5.8831 167.49 7.03166 171.009 8.78659C176.254 11.4021 181.285 14.4454 186.407 17.3067C187.957 18.7412 189.507 20.1758 191.275 22.1561C191.785 22.8982 192.077 23.0945 192.369 23.2908C192.369 23.2908 192.309 23.2947 192.33 23.2722Z" fill="#2C64F5"/>
<path d="M294.5 442.068C293.77 445.684 290.927 447.31 287.422 447.271C279.129 447.179 270.823 446.982 262.555 446.381C246.166 445.19 233.047 449.982 225.987 465.207C225.519 466.217 225.47 467.42 225.004 469.072C224.625 469.934 224.468 470.257 224.31 470.58C220.759 470.685 222.881 468.489 223.201 467.431C227.209 454.182 240.689 444.216 254.757 444.412C264.202 444.544 273.645 445.577 283.079 445.46C286.785 445.414 290.467 443.334 294.5 442.068Z" fill="#2C64F5"/>
<path d="M158.676 435.864C165.613 428.483 174.238 425.312 184.245 425.753C193.557 426.164 202.86 426.89 212.176 427.117C221.91 427.354 226.192 422.917 226.184 413.212C226.181 409.217 226.378 405.193 225.954 401.239C225.774 399.553 224.237 398.014 223.18 395.994C223.043 395.581 223.272 395.322 223.646 395.375C225.095 397.26 226.93 399.025 227.101 400.939C227.544 405.887 227.289 410.901 227.245 415.888C227.186 422.72 224.161 427.473 217.381 428.137C209.428 428.916 201.266 428.502 193.277 427.742C181.861 426.657 171.068 427.11 161.886 435.115C161.178 435.733 160.157 435.992 159.135 436.275C158.987 436.132 158.676 435.864 158.676 435.864Z" fill="#2C64F5"/>
<path d="M222.124 451.355C220.496 452.658 218.882 455.075 217.24 455.094C194.82 455.352 172.395 455.282 149.972 455.273C149.497 455.272 149.021 455.047 147.37 454.629C149.685 449.873 151.881 445.36 154.538 440.63C154.998 440.413 155.349 440.431 155.276 440.785C153.698 444.906 152.194 448.673 150.516 452.878C152.705 453.179 153.348 453.345 153.991 453.346C174.588 453.363 195.185 453.414 215.781 453.28C217.587 453.268 219.384 452.021 221.42 451.352C221.655 451.356 222.124 451.355 222.124 451.355Z" fill="#2C64F5"/>
<path d="M87.7127 47.9046C78.9867 55.289 68.2759 58.2558 57.5243 61.0057C64.4998 83.5286 61.6649 94.5378 45.9729 105.715C45.6665 105.86 45.4326 105.589 45.4703 105.155C46.321 103.889 47.0234 102.895 47.9644 102.25C56.0769 96.6853 59.6877 88.7895 59.1488 79.2212C58.8021 73.067 57.4375 66.9701 56.514 60.7449C66.1996 56.5112 76.705 51.9191 87.3345 47.4727C87.4586 47.6184 87.7127 47.9046 87.7127 47.9046Z" fill="#2C64F5"/>
<path d="M401.468 196.675C400.309 196.436 398.72 196.208 397.803 195.3C386.345 183.955 373.279 174.907 358.348 168.93C348.329 164.92 337.865 162.021 327.5 158.316C328.606 157.863 329.893 157.367 331.001 157.629C358.031 164.023 381.775 176.422 401.468 196.675Z" fill="#2C64F5"/>
<path d="M252.75 427.75C258.424 429.534 264.118 431.256 269.762 433.131C272.29 433.971 274.717 435.117 277.19 436.125C277.058 436.594 276.925 437.063 276.793 437.531C271.224 437.273 265.648 437.111 260.087 436.737C245.706 435.771 233.076 439.474 222.657 450.356C222.269 450.391 222.137 450.279 222.202 449.944C228.815 440.81 237.993 436.583 248.519 435.486C254.985 434.812 261.579 435.361 267.504 435.361C262.62 433.138 257.411 430.766 252.344 428.239C252.487 428.082 252.75 427.75 252.75 427.75Z" fill="#2C64F5"/>
<path d="M114.236 18.3286C127.752 16.4874 139.528 20.458 149.928 29.3856C141.804 26.5011 133.902 22.4241 125.509 20.2021C115.026 17.4269 109.386 20.9977 103.311 29.8648C98.9554 36.2217 93.3612 41.7298 88.0163 47.7603C87.7129 47.9039 87.4588 47.6177 87.4842 47.1764C92.3468 40.8627 97.8097 35.3831 101.823 28.9929C105.017 23.9071 108.73 20.3012 114.236 18.3286Z" fill="#2C64F5"/>
<path d="M186.307 16.9805C181.285 14.4454 176.254 11.4021 171.009 8.78659C167.49 7.03166 163.668 5.88311 159.607 4.43827C158.794 4.38442 158.356 4.35554 157.413 4.08096C156.351 3.69465 155.793 3.55402 155.235 3.41341C154.17 3.38491 153.106 3.3564 151.364 3.04659C145.199 2.61835 139.712 2.47141 134.224 2.32447C133.477 2.33628 132.73 2.3481 131.21 2.37289C127.377 3.02309 124.316 3.66032 121.252 4.03394C121.243 3.41901 121.237 3.06768 121.232 2.71635C145.223 -3.51014 166.941 0.85467 186.307 16.9805Z" fill="#2C64F5"/>
<path d="M168.336 49.2061C173.758 56.241 175.681 64.6077 174.973 73.0013C174.002 84.5159 169.043 94.6788 160.33 102.632C159.053 103.798 157.222 104.357 155.277 105.092C162.185 98.8466 168.332 91.9059 171.198 82.5401C174.515 71.6998 173.093 61.3502 168.22 50.6008C168.264 49.6612 168.3 49.4336 168.336 49.2061Z" fill="#2C64F5"/>
<path d="M224.733 470.663C224.468 470.257 224.625 469.933 225.014 469.461C266.26 469.337 307.276 469.363 348.595 469.655C348.561 470.117 348.223 470.314 347.885 470.511C346.706 470.572 345.528 470.632 343.526 470.546C341.741 470.424 340.778 470.448 339.815 470.473C338.964 470.542 338.114 470.611 336.46 470.536C332.709 470.417 329.762 470.441 326.815 470.465C321.719 470.54 316.623 470.615 310.591 470.542C298.377 470.417 287.1 470.44 275.823 470.463C273.697 470.536 271.57 470.608 268.55 470.537C262.371 470.416 257.085 470.439 251.798 470.461C249.022 470.534 246.246 470.606 242.567 470.536C238.705 470.416 235.746 470.439 232.788 470.462C230.244 470.557 227.7 470.651 224.733 470.663Z" fill="#2C64F5"/>
<path d="M444.906 266.042C446.965 269.199 450.138 272.476 450.987 276.272C452.349 282.367 452.175 288.806 452.72 296.035C455.859 293.913 459.519 291.47 463.142 288.975C464.744 287.872 466.273 286.662 468.2 285.592C463.931 293.001 456.471 296.169 447.955 299.756C452.553 287.613 451.437 276.687 444.906 266.042Z" fill="#2C64F5"/>
<path d="M222.239 367.417C229.285 369.026 236.303 370.773 243.385 372.197C248.65 373.255 254 373.893 259.955 374.818C258.877 371.225 258.083 368.579 257.311 365.54C259.349 368.792 261.366 372.438 263.834 376.901C248.783 375.638 235.145 373.03 221.732 368.458C221.929 367.98 222.126 367.732 222.239 367.417Z" fill="#2C64F5"/>
<path d="M221.905 367.26C222.126 367.733 221.929 367.98 221.43 368.266C206.894 364.359 193.446 358.372 180.547 350.112C180.285 349.678 180.29 349.271 180.29 349.271C185.721 351.952 191.043 354.89 196.609 357.255C204.839 360.751 213.241 363.839 221.905 367.26Z" fill="#2C64F5"/>
<path d="M296.822 401.784C297.523 402.477 299.096 403.533 299.115 404.619C299.299 414.695 299.444 424.784 299.046 434.848C298.949 437.28 296.802 439.631 295.214 442.002C295.663 438.504 297.127 435.038 297.208 431.539C297.435 421.754 297.091 411.955 296.822 401.784Z" fill="#2C64F5"/>
<path d="M257.746 389.914C256.113 391.753 254.819 394.243 252.782 395.303C247.733 397.93 247.285 402.029 247.775 406.87C248.439 413.439 246.087 420.553 251.442 426.687C251.482 427.125 251.208 427.387 250.897 427.232C249.135 424.189 246.795 421.409 246.426 418.389C245.744 412.808 246.055 407.079 246.312 401.428C246.385 399.815 247.345 397.905 248.51 396.747C251.201 394.07 254.267 391.77 257.321 389.468C257.461 389.618 257.746 389.914 257.746 389.914Z" fill="#2C64F5"/>
<path d="M42.353 53.7057C55.7732 53.2011 68.4931 50.1902 80.5493 43.1621C81.008 43.1625 81.2551 43.3851 81.0992 43.6875C71.1957 51.0175 60.3477 54.5905 47.9054 54.3796C45.7933 54.149 44.0732 53.9274 42.353 53.7057Z" fill="#2C64F5"/>
<path d="M348.255 470.645C348.223 470.314 348.561 470.117 349.063 469.677C350.528 469.37 351.829 469.307 353.265 469.237C352.219 466.493 351.216 463.959 350.283 461.399C347.962 455.031 342.002 453.955 336.447 451.688C346.311 450.916 352.663 457.29 354.831 470.778C352.686 470.778 350.656 470.778 348.255 470.645Z" fill="#2C64F5"/>
<path d="M222.93 395.71C214.495 390.274 210.413 381.725 205.553 372.114C209.39 373.399 211.987 374.269 214.899 375.547C215.215 375.955 215.218 376.436 214.842 376.413C212.932 376.1 211.398 375.809 209.312 375.414C209.742 376.594 209.829 377.245 210.172 377.709C214.517 383.595 218.9 389.455 223.273 395.322C223.273 395.322 223.044 395.58 222.93 395.71Z" fill="#2C64F5"/>
<path d="M119.06 286.079C125.276 287.342 130.934 289.725 133.819 296.37C135.976 301.339 138.63 306.091 140.944 311.314C138.913 308.607 136.382 305.744 135.212 302.404C132.394 294.358 126.229 290.023 119.06 286.079Z" fill="#2C64F5"/>
<path d="M139.791 59.938C134.441 63.0836 129.072 62.5324 125.506 58.4715C121.694 54.1315 121.934 48.5093 126.587 43.1998C127.019 43.1636 127.287 43.4105 127.229 43.7669C126.858 44.6921 126.622 45.3228 126.221 45.8199C123.268 49.4751 123.858 53.2777 126.277 56.7114C128.676 60.116 132.203 61.1715 136.307 59.848C137.23 59.5502 138.225 59.4732 139.334 59.4593C139.481 59.624 139.791 59.938 139.791 59.938Z" fill="#2C64F5"/>
<path d="M215.217 376.435C215.217 376.435 215.214 375.955 215.208 375.715C224.31 377.673 233.416 379.872 242.575 382.244C242.157 382.717 241.688 383.016 240.808 383.328C232.004 381.039 223.611 378.737 215.217 376.435Z" fill="#2C64F5"/>
<path d="M126.887 43.0389C131.529 39.5718 136.551 39.4761 140.297 42.6558C144.519 46.2388 145.253 51.6222 141.902 57.4991C141.498 57.609 141.18 57.3138 141.246 56.9158C143.579 48.8002 142.084 44.2234 135.771 42.373C133.26 41.637 130.134 43.0021 127.287 43.4107C127.287 43.4107 127.019 43.1638 126.887 43.0389Z" fill="#2C64F5"/>
<path d="M180.125 348.981C180.289 349.27 180.284 349.677 180.296 349.88C173.965 345.431 167.622 340.78 161.162 335.816C167.35 339.9 173.656 344.296 180.125 348.981Z" fill="#2C64F5"/>
<path d="M269.043 369.617C273.674 376.206 278.34 383.122 282.838 390.386C278.139 383.805 273.608 376.875 269.043 369.617Z" fill="#2C64F5"/>
<path d="M241.219 383.317C241.688 383.017 242.157 382.717 242.918 382.394C248.959 383.102 254.709 383.835 261.203 384.663C260.055 386.541 259.153 388.016 257.998 389.703C257.746 389.914 257.461 389.618 257.363 389.126C256.581 387.554 256.058 385.705 255.185 385.522C250.578 384.556 245.883 384.009 241.219 383.317Z" fill="#2C64F5"/>
<path d="M333.778 451.155C325.452 451.342 320.157 446.892 317.684 438.69C318.254 438.267 318.489 438.236 318.725 438.206C320.652 444.412 324.521 448.426 331.17 449.459C332.021 449.591 332.768 450.404 333.778 451.155Z" fill="#2C64F5"/>
<path d="M318.727 437.882C318.49 438.236 318.254 438.266 317.665 438.334C317.412 426.232 317.511 414.093 317.906 401.661C318.227 401.583 318.253 401.797 318.342 402.33C318.451 403.859 318.497 405.069 318.404 407.135C318.286 417.217 318.307 426.444 318.329 435.671C318.462 436.3 318.596 436.929 318.727 437.882Z" fill="#2C64F5"/>
<path d="M150.306 323.33C153.923 327.165 157.539 331 161.124 335.195C157.198 331.706 153.305 327.856 149.585 323.68C149.941 323.345 150.123 323.338 150.306 323.33Z" fill="#2C64F5"/>
<path d="M276.24 470.608C287.1 470.44 298.377 470.417 310.163 470.428C299.334 470.559 287.996 470.655 276.24 470.608Z" fill="#2C64F5"/>
<path d="M120.872 2.73047C121.237 3.06728 121.242 3.41861 120.892 4.09822C116.465 6.43336 112.394 8.44022 108.238 10.3575C108.154 10.268 107.988 10.0864 107.988 10.0864C112.163 7.6393 116.338 5.19214 120.872 2.73047Z" fill="#2C64F5"/>
<path d="M318.455 435.26C318.307 426.444 318.286 417.218 318.301 407.487C318.419 416.272 318.501 425.56 318.455 435.26Z" fill="#2C64F5"/>
<path d="M168.272 48.8654C168.3 49.4339 168.264 49.6609 168.185 50.2315C165.475 46.7678 162.807 42.961 160.107 38.8076C162.787 41.8153 165.497 45.1702 168.272 48.8654Z" fill="#2C64F5"/>
<path d="M255.35 353.926C250.959 351.552 255.368 350.113 256.488 349.79C257.768 349.422 259.581 350.907 261.012 351.956C260.861 352.325 260.452 352.303 260.452 352.303C258.279 350.691 256.108 349.085 255.35 353.926Z" fill="#2C64F5"/>
<path d="M437.506 258.306C437.291 258.04 437.286 257.659 437.3 257.468C439.894 259.848 442.476 262.42 444.925 265.347C442.436 263.326 440.079 260.949 437.506 258.306Z" fill="#2C64F5"/>
<path d="M80.8843 43.0517C83.269 40.7355 85.7779 38.53 88.6867 36.2674C89.0867 36.2102 89.3029 36.4138 89.2496 36.7532C86.5494 39.19 83.9024 41.2875 81.2554 43.3849C81.2554 43.3849 81.0084 43.1623 80.8843 43.0517Z" fill="#2C64F5"/>
<path d="M99.9624 20.0673C101.748 17.5001 103.534 14.933 105.716 12.3063C106.111 12.2469 106.323 12.4463 106.265 12.783C104.248 15.5573 102.289 17.9951 100.238 20.3428C100.144 20.2528 99.9624 20.0673 99.9624 20.0673Z" fill="#2C64F5"/>
<path d="M252.216 470.608C257.084 470.439 262.371 470.417 268.166 470.428C263.328 470.559 257.981 470.656 252.216 470.608Z" fill="#2C64F5"/>
<path d="M90.8057 33.925C92.3344 31.4408 93.8631 28.9565 95.7574 26.3646C96.123 26.257 96.3287 26.4312 96.2737 26.7818C94.5698 29.5529 92.9209 31.9734 91.1557 34.2764C91.0394 34.159 90.8057 33.925 90.8057 33.925Z" fill="#2C64F5"/>
<path d="M150.247 322.994C150.123 323.338 149.941 323.346 149.485 323.36C147.816 321.666 146.42 319.965 144.949 317.938C146.646 319.294 148.417 320.975 150.247 322.994Z" fill="#2C64F5"/>
<path d="M150.049 30.0518C151.978 31.097 154.055 32.4261 156.152 34.1127C154.18 33.0921 152.188 31.7139 150.049 30.0518Z" fill="#2C64F5"/>
<path d="M260.528 352.645C260.452 352.304 260.861 352.325 261.066 352.327C261.271 352.329 261.245 352.349 261.35 352.568C261.647 353.073 261.905 353.271 262.23 353.382C263.071 355.561 263.911 357.739 264.577 360.16C263.136 357.93 261.87 355.458 260.528 352.645Z" fill="#2C64F5"/>
<path d="M34.2877 54.5503C36.0118 54.2301 37.7359 53.9099 39.8441 53.9233C40.2351 54.6053 40.2422 54.9538 39.8201 55.3233C37.6758 55.3598 35.9608 55.3752 34.2534 55.1805C34.2611 54.9702 34.2877 54.5503 34.2877 54.5503Z" fill="#2C64F5"/>
<path d="M110.306 279.704C112.09 280.602 114.016 281.805 115.942 283.377C114.111 282.501 112.279 281.255 110.306 279.704Z" fill="#2C64F5"/>
<path d="M16.2539 62.3769C17.9966 61.0597 19.7919 59.7982 21.9175 58.7266C22.2479 58.9164 22.2428 59.3938 22.028 59.6538C20.0127 60.7904 18.2123 61.6671 16.4118 62.5437C16.4118 62.5437 16.3064 62.4326 16.2539 62.3769Z" fill="#2C64F5"/>
<path d="M40.2491 55.3022C40.242 54.9537 40.235 54.6052 40.2241 53.9953C40.6957 53.6675 41.1711 53.6012 41.9997 53.6201C44.0731 53.9272 45.7933 54.1488 47.6098 54.6527C45.2205 55.0573 42.7348 55.1798 40.2491 55.3022Z" fill="#2C64F5"/>
<path d="M405.501 200.579C404.218 199.827 402.813 198.791 401.509 197.382C402.867 198.104 404.123 199.2 405.501 200.579Z" fill="#2C64F5"/>
<path d="M233.184 470.611C235.747 470.439 238.705 470.417 242.163 470.428C239.635 470.562 236.607 470.661 233.184 470.611Z" fill="#2C64F5"/>
<path d="M327.208 470.611C329.762 470.441 332.709 470.417 336.154 470.428C333.636 470.562 330.619 470.659 327.208 470.611Z" fill="#2C64F5"/>
<path d="M22.2432 59.3941C22.2432 59.3941 22.2483 58.9167 22.2517 58.6779C23.7042 57.7636 25.1532 57.0879 26.9576 56.4229C27.3129 56.4335 27.3221 56.4473 27.2935 56.6748C27.2647 56.9023 27.236 57.3604 27.0196 57.6251C25.2831 58.3912 23.7631 58.8927 22.2432 59.3941Z" fill="#2C64F5"/>
<path d="M286.99 395.22C287.957 395.506 289.037 396.071 290.139 396.995C289.142 396.735 288.122 396.117 286.99 395.22Z" fill="#2C64F5"/>
<path d="M27.3081 56.4372C28.7255 55.9576 30.1475 55.4741 31.8989 55.2422C32.244 55.7757 32.2519 56.0579 31.884 56.3604C30.7807 56.3916 30.0453 56.4026 28.9778 56.3927C28.2046 56.3969 27.7633 56.4221 27.322 56.4472C27.322 56.4472 27.3128 56.4334 27.3081 56.4372Z" fill="#2C64F5"/>
<path d="M264.942 361.571C265.535 362.208 266.161 363.135 266.57 364.243C265.894 363.571 265.435 362.716 264.942 361.571Z" fill="#2C64F5"/>
<path d="M142.868 315.005C143.577 315.445 144.336 316.197 145.001 317.309C144.244 316.886 143.581 316.101 142.868 315.005Z" fill="#2C64F5"/>
<path d="M96.02 26.1703C96.3863 25.1762 96.8554 24.2692 97.7004 23.2899C98.0764 23.2176 98.3183 23.4229 98.2783 23.7366C97.6016 24.8441 96.965 25.6379 96.3284 26.4316C96.3284 26.4316 96.1228 26.2574 96.02 26.1703Z" fill="#2C64F5"/>
<path d="M97.9561 23.1149C98.3674 22.1365 98.8994 21.2609 99.6971 20.2265C99.9628 20.0677 100.145 20.2532 100.194 20.6564C99.6024 21.8474 98.9605 22.6352 98.3187 23.4231C98.3187 23.4231 98.0768 23.2178 97.9561 23.1149Z" fill="#2C64F5"/>
<path d="M155.349 440.431C155.349 440.431 154.998 440.412 154.822 440.428C155.193 439.682 155.74 438.921 156.653 438.144C157.019 438.128 157.29 438.404 157.237 438.714C156.573 439.492 155.961 439.962 155.349 440.431Z" fill="#2C64F5"/>
<path d="M469.718 284.438C469.878 283.552 470.327 282.532 471.161 281.555C471.033 282.499 470.52 283.402 469.718 284.438Z" fill="#2C64F5"/>
<path d="M116.052 284.04C116.916 284.182 117.918 284.603 118.915 285.4C118.004 285.291 117.098 284.805 116.052 284.04Z" fill="#2C64F5"/>
<path d="M140.864 311.991C141.562 312.448 142.311 313.214 142.928 314.334C142.169 313.892 141.541 313.097 140.864 311.991Z" fill="#2C64F5"/>
<path d="M106.003 12.1493C106.41 11.4694 106.924 10.8874 107.714 10.1963C107.988 10.0872 108.154 10.2687 108.175 10.6651C107.572 11.5232 106.948 11.985 106.324 12.4467C106.324 12.4467 106.111 12.2472 106.003 12.1493Z" fill="#2C64F5"/>
<path d="M32.2516 56.34C32.2518 56.0575 32.2439 55.7753 32.2197 55.2822C32.6572 54.8804 33.103 54.6897 33.9182 54.5244C34.2876 54.5499 34.261 54.9698 34.0815 55.4169C33.3519 56.0226 32.8018 56.1813 32.2516 56.34Z" fill="#2C64F5"/>
<path d="M340.119 470.611C340.777 470.449 341.74 470.424 343.187 470.436C342.588 470.565 341.506 470.657 340.119 470.611Z" fill="#2C64F5"/>
<path d="M141.65 57.7634C141.3 58.496 140.798 59.0739 140.044 59.7948C139.791 59.9379 139.481 59.6239 139.464 59.2032C140.025 58.2928 140.602 57.8031 141.18 57.3135C141.18 57.3135 141.498 57.6087 141.65 57.7634Z" fill="#2C64F5"/>
<path d="M407.187 202.06C406.732 202.086 406.161 201.842 405.593 201.262C406.088 201.214 406.579 201.502 407.187 202.06Z" fill="#2C64F5"/>
<path d="M472.951 277.527C473.214 277.692 473.214 278.073 473.213 278.74C473.21 279.025 473.073 279.481 472.857 279.578C472.658 279.031 472.674 278.387 472.951 277.527Z" fill="#2C64F5"/>
<path d="M471.75 281.447C471.63 280.969 471.783 280.341 472.28 279.652C472.424 280.16 472.223 280.729 471.75 281.447Z" fill="#2C64F5"/>
<path d="M266.861 365.495C267.121 365.578 267.413 365.882 267.553 366.31C267.15 366.252 266.981 366.012 266.861 365.495Z" fill="#2C64F5"/>
<path d="M267.929 367.469C268.182 367.553 268.452 367.853 268.576 368.268C268.18 368.212 268.017 367.979 267.929 367.469Z" fill="#2C64F5"/>
<path d="M222.21 451.148C222.123 451.354 221.654 451.355 221.527 451.131C221.586 450.628 221.832 450.419 222.136 450.279C222.136 450.279 222.268 450.391 222.333 450.449C222.399 450.507 222.297 450.943 222.21 451.148Z" fill="#2C64F5"/>
<path d="M468.746 285.579C468.611 285.302 468.754 284.957 469.19 284.551C469.33 284.831 469.178 285.171 468.746 285.579Z" fill="#2C64F5"/>
<path d="M156.889 437.984C156.886 437.537 157.078 437.284 157.674 437.104C158.013 437.127 158.279 437.402 158.17 437.618C157.863 438.105 157.606 438.295 157.29 438.404C157.29 438.404 157.019 438.128 156.889 437.984Z" fill="#2C64F5"/>
<path d="M157.884 436.986C157.871 436.555 158.05 436.31 158.483 435.987C158.676 435.865 158.987 436.132 159.022 436.488C158.855 437.112 158.596 437.298 158.278 437.402C158.278 437.402 158.013 437.128 157.884 436.986Z" fill="#2C64F5"/>
<path d="M251.623 426.999C252.047 426.986 252.29 427.157 252.621 427.567C252.749 427.75 252.487 428.082 252.125 428.128C251.491 427.974 251.305 427.711 251.208 427.386C251.208 427.386 251.482 427.125 251.623 426.999Z" fill="#2C64F5"/>
<path d="M285.914 394.078C286.212 393.932 286.555 394.029 286.852 394.428C286.434 394.779 286.151 394.643 285.914 394.078Z" fill="#2C64F5"/>
<path d="M284.91 393.082C285.209 392.938 285.551 393.034 285.838 393.431C285.416 393.779 285.139 393.643 284.91 393.082Z" fill="#2C64F5"/>
<path d="M283.909 392.084C284.208 391.94 284.549 392.035 284.834 392.431C284.412 392.778 284.137 392.642 283.909 392.084Z" fill="#2C64F5"/>
<path d="M282.906 391.052C283.202 390.915 283.545 391.021 283.834 391.428C283.406 391.771 283.131 391.626 282.906 391.052Z" fill="#2C64F5"/>
<path d="M159.573 37.6873C159.83 37.5938 160.012 37.7946 160.117 38.2957C159.872 38.3771 159.691 38.1723 159.573 37.6873Z" fill="#2C64F5"/>
<path d="M88.9797 36.1074C88.9552 35.6693 89.1372 35.4018 89.7482 35.2031C90.0778 35.2044 90.2843 35.4075 90.1764 35.6242C89.8721 36.1105 89.6169 36.3015 89.3029 36.4139C89.3029 36.4139 89.0867 36.2103 88.9797 36.1074Z" fill="#2C64F5"/>
<path d="M89.9737 35.1037C89.9454 34.6683 90.1141 34.3903 90.5907 34.0473C90.8055 33.9256 91.0392 34.1596 91.0486 34.4965C90.8628 35.1094 90.6048 35.3009 90.2841 35.4079C90.2841 35.4079 90.0775 35.2048 89.9737 35.1037Z" fill="#2C64F5"/>
<path d="M192.278 23.0369C192.077 23.0941 191.785 22.8979 191.407 22.4463C191.61 22.3885 191.899 22.5859 192.278 23.0369Z" fill="#2C64F5"/>
<path d="M90.1764 35.6242C90.6051 35.3006 90.863 35.1086 91.1652 34.6131C92.921 31.9732 94.5698 29.5529 96.2737 26.7818C96.9653 25.6374 97.6016 24.8441 98.2783 23.7366C98.9602 22.635 99.6024 21.8465 100.288 20.7456C102.29 17.9946 104.248 15.5573 106.265 12.783C106.948 11.9846 107.572 11.5224 108.259 10.7538C112.394 8.44013 116.466 6.43328 120.896 4.36173C124.316 3.65983 127.377 3.02261 130.837 2.39062C128.268 3.72408 125.39 5.33637 122.311 6.31958C116.711 8.10823 110.599 9.02388 109.357 16.2639C111.078 16.7657 112.6 17.2094 114.179 17.9912C108.73 20.3019 105.017 23.9071 101.823 28.9929C97.8097 35.3831 92.3468 40.8625 87.3601 47.0306C76.7053 51.9182 66.1996 56.5112 56.514 60.7449C57.4375 66.9701 58.8021 73.067 59.1488 79.2212C59.6877 88.7895 56.0769 96.6853 47.9644 102.25C47.0234 102.895 46.3212 103.888 45.3551 105.017C31.6889 112.289 27.5385 124.148 28.2094 138.93C20.6261 136.549 15.5182 131.398 11.5732 125.656C1.47743 110.962 -1.14818 94.7653 5.70045 78.0462C7.94194 72.5742 12.6507 68.1129 16.3216 62.8664C18.2124 61.6669 20.0127 60.7904 22.028 59.6538C23.7627 58.8924 25.2831 58.3907 27.3197 57.6055C28.3275 57.0189 28.8187 56.716 29.3099 56.4132C30.0454 56.4021 30.7807 56.3915 31.884 56.3604C32.8019 56.1817 33.3522 56.0225 34.0742 55.6271C35.961 55.3748 37.6758 55.3598 39.8201 55.3233C42.735 55.1799 45.2209 55.057 48.0021 54.6612C60.348 54.5899 71.1957 51.0175 81.0992 43.6875C83.902 41.2877 86.5494 39.19 89.2496 36.7532C89.6169 36.3014 89.8721 36.1105 90.1764 35.6242Z" fill="#2C64F5"/>
<path d="M134.4 2.65769C139.711 2.47174 145.199 2.61826 150.965 3.04323C150.314 3.95595 149.374 5.1463 148.458 5.12879C144.673 5.05644 140.887 4.68672 137.12 4.26393C136.235 4.16466 135.422 3.4319 134.4 2.65769Z" fill="#2C64F5"/>
<path d="M206.001 56.5615C206.592 57.4389 206.912 58.5342 207.219 59.9942C206.714 59.1658 206.221 57.9725 206.001 56.5615Z" fill="#2C64F5"/>
<path d="M155.269 3.70352C155.792 3.55435 156.351 3.6945 157.083 4.07231C156.606 4.20395 155.954 4.09888 155.269 3.70352Z" fill="#2C64F5"/>
<path d="M262.137 353.15C261.905 353.271 261.647 353.073 261.355 352.561C261.591 352.43 261.854 352.625 262.137 353.15Z" fill="#2C64F5"/>
<path d="M250.897 427.232C251.305 427.712 251.491 427.974 251.983 428.285C257.411 430.767 262.62 433.138 267.504 435.361C261.579 435.361 254.985 434.812 248.519 435.486C237.993 436.583 228.815 440.81 222.202 449.944C221.832 450.419 221.586 450.628 221.293 451.126C219.384 452.02 217.587 453.268 215.781 453.28C195.185 453.414 174.588 453.363 153.991 453.346C153.348 453.345 152.705 453.179 150.516 452.878C152.194 448.673 153.698 444.906 155.276 440.785C155.961 439.962 156.573 439.492 157.237 438.714C157.606 438.295 157.863 438.105 158.17 437.618C158.596 437.298 158.856 437.112 159.169 436.63C160.158 435.991 161.178 435.733 161.886 435.115C171.068 427.11 181.861 426.657 193.277 427.742C201.266 428.502 209.428 428.916 217.381 428.137C224.161 427.473 227.186 422.72 227.245 415.888C227.289 410.901 227.544 405.887 227.101 400.939C226.93 399.025 225.095 397.26 223.646 395.375C218.899 389.456 214.517 383.595 210.172 377.709C209.829 377.245 209.742 376.594 209.312 375.414C211.398 375.809 212.932 376.1 214.842 376.413C223.611 378.737 232.004 381.039 240.808 383.328C245.883 384.008 250.578 384.556 255.185 385.522C256.058 385.705 256.581 387.553 257.223 388.975C254.267 391.77 251.201 394.07 248.51 396.747C247.345 397.905 246.385 399.815 246.312 401.428C246.055 407.079 245.744 412.808 246.426 418.389C246.795 421.409 249.135 424.189 250.897 427.232Z" fill="#2C64F5"/>
<path d="M141.246 56.9158C140.603 57.8034 140.025 58.2932 139.317 59.0389C138.225 59.4735 137.23 59.5502 136.307 59.848C132.203 61.1715 128.676 60.116 126.277 56.7114C123.858 53.2777 123.268 49.4751 126.221 45.8199C126.622 45.3228 126.858 44.6921 127.229 43.7669C130.134 43.0019 133.26 41.637 135.771 42.373C142.084 44.2234 143.579 48.8002 141.246 56.9158Z" fill="#2C64F5"/>
<path d="M28.9778 56.3927C28.8185 56.7165 28.3274 57.0193 27.536 57.3412C27.2359 57.3602 27.2647 56.9023 27.2935 56.6748C27.7634 56.4221 28.2046 56.3969 28.9778 56.3927Z" fill="#2C64F5"/>
</svg>
